<?xml version="1.0" encoding="utf-8"?>
<!-- Generator: Adobe Illustrator 26.3.1, SVG Export Plug-In . SVG Version: 6.00 Build 0)  -->
<svg version="1.1" id="Layer_1" xmlns="http://www.w3.org/2000/svg" xmlns:xlink="http://www.w3.org/1999/xlink" x="0px" y="0px"
	 viewBox="0 0 40 40" style="enable-background:new 0 0 40 40;" xml:space="preserve">
<style type="text/css">
	.st0{fill-rule:evenodd;clip-rule:evenodd;fill:#404D59;}
	.st1{fill-rule:evenodd;clip-rule:evenodd;fill:#FFFFFF;}
</style>
<path class="st0" d="M8.9,13.6c0-3.5,2.9-6.4,6.4-6.4c3.5,0,6.4,2.8,6.4,6.4c0,3.5-2.9,6.4-6.4,6.4C11.7,20,8.9,17.2,8.9,13.6z"/>
<path class="st0" d="M28,28c0,0,0,0,0,4.8c0,0.8-0.2,1.6-0.4,2.2c-2.3,1.2-4.8,1.8-7.5,1.8c-7.5,0-13.8-4.9-15.9-11.7
	c2.7-2.3,8-3.4,11.2-3.4C19.5,21.6,28,23.7,28,28z"/>
<path class="st0" d="M22.7,19.6c1.3-1.6,2.1-3.7,2.1-6s-0.8-4.4-2.1-6c0.7-0.2,1.4-0.4,2.1-0.4c3.5,0,6.4,2.8,6.4,6.4
	c0,3.5-2.9,6.4-6.4,6.4C24,20,23.3,19.8,22.7,19.6z"/>
<path class="st0" d="M35.9,25c-0.9,2.9-2.6,5.4-4.8,7.4V28c0-2.7-1.5-4.7-3.7-6.2C30.4,22.2,34,23.3,35.9,25z"/>
<g>
	<g>
		<g>
			<path class="st1" d="M35.9,25c-0.9,2.9-2.6,5.4-4.8,7.4V28c0-2.7-1.5-4.7-3.7-6.2C30.4,22.2,34,23.3,35.9,25z"/>
		</g>
		<g>
			<path class="st1" d="M21.6,13.6c0,3.5-2.9,6.4-6.4,6.4c-3.5,0-6.4-2.8-6.4-6.4c0-3.5,2.9-6.4,6.4-6.4
				C18.7,7.3,21.6,10.1,21.6,13.6z"/>
		</g>
		<g>
			<path class="st1" d="M31.1,13.6c0,3.5-2.9,6.4-6.4,6.4c-0.8,0-1.4-0.2-2.1-0.4c1.3-1.6,2.1-3.7,2.1-6s-0.8-4.4-2.1-6
				c0.7-0.2,1.4-0.4,2.1-0.4C28.3,7.3,31.1,10.1,31.1,13.6z"/>
		</g>
		<g>
			<path class="st1" d="M28,28c0,0,0,0,0,4.8c0,0.8-0.2,1.6-0.4,2.2c-2.3,1.2-4.8,1.8-7.5,1.8c-7.5,0-13.8-4.9-15.9-11.7
				c2.7-2.3,8-3.4,11.2-3.4C19.5,21.6,28,23.7,28,28z"/>
		</g>
	</g>
</g>
<path class="st0" d="M20,0C9,0,0,9,0,20s9,20,20,20s20-9,20-20S31,0,20,0z M31.1,32.5V28c0-2.7-1.5-4.7-3.7-6.2
	c3,0.4,6.5,1.5,8.5,3.2C35,27.9,33.3,30.5,31.1,32.5z M15.2,7.3c3.5,0,6.4,2.8,6.4,6.4c0,3.5-2.9,6.4-6.4,6.4
	c-3.5,0-6.4-2.8-6.4-6.4C8.9,10.1,11.7,7.3,15.2,7.3z M22.7,7.7c0.7-0.2,1.4-0.4,2.1-0.4c3.5,0,6.4,2.8,6.4,6.4
	c0,3.5-2.9,6.4-6.4,6.4c-0.8,0-1.4-0.2-2.1-0.4c1.3-1.6,2.1-3.7,2.1-6S24,9.3,22.7,7.7z M20,36.7c-7.5,0-13.8-4.9-15.9-11.7
	c2.7-2.3,8-3.4,11.2-3.4c4.2,0,12.7,2.1,12.7,6.4c0,0,0,0,0,4.8c0,0.8-0.2,1.6-0.4,2.2C25.3,36.1,22.7,36.7,20,36.7z"/>
</svg>
