<?xml version="1.0" encoding="utf-8"?>
<!-- Generator: Adobe Illustrator 26.3.1, SVG Export Plug-In . SVG Version: 6.00 Build 0)  -->
<svg version="1.1" id="Layer_1" xmlns="http://www.w3.org/2000/svg" xmlns:xlink="http://www.w3.org/1999/xlink" x="0px" y="0px"
	 viewBox="0 0 40 40" style="enable-background:new 0 0 40 40;" xml:space="preserve">
<style type="text/css">
	.st0{fill-rule:evenodd;clip-rule:evenodd;fill:#404D59;}
	.st1{fill-rule:evenodd;clip-rule:evenodd;fill:#FFFFFF;}
</style>
<path class="st0" d="M26.4,13.6c0,3.5-2.8,6.4-6.4,6.4c-3.5,0-6.4-2.8-6.4-6.4c0-3.5,2.9-6.4,6.4-6.4C23.5,7.3,26.4,10.1,26.4,13.6z
	"/>
<path class="st0" d="M32.7,28v2.9c-3.1,3.6-7.6,5.9-12.7,5.9c-5.1,0-9.7-2.3-12.7-5.9V28c0-4.2,8.5-6.4,12.7-6.4S32.7,23.7,32.7,28z
	"/>
<g>
	<g>
		<g>
			<path class="st1" d="M26.4,13.6c0,3.5-2.8,6.4-6.4,6.4c-3.5,0-6.4-2.8-6.4-6.4c0-3.5,2.9-6.4,6.4-6.4
				C23.5,7.3,26.4,10.1,26.4,13.6z"/>
		</g>
		<g>
			<path class="st1" d="M32.7,28v2.9c-3.1,3.6-7.6,5.9-12.7,5.9c-5.1,0-9.7-2.3-12.7-5.9V28c0-4.2,8.5-6.4,12.7-6.4
				S32.7,23.7,32.7,28z"/>
		</g>
	</g>
</g>
<path class="st0" d="M20,0C8.9,0,0,9,0,20s8.9,20,20,20c11,0,20-9,20-20S31,0,20,0z M20,7.3c3.5,0,6.4,2.8,6.4,6.4
	c0,3.5-2.8,6.4-6.4,6.4c-3.5,0-6.4-2.8-6.4-6.4C13.6,10.1,16.5,7.3,20,7.3z M32.7,30.8c-3.1,3.6-7.6,5.9-12.7,5.9
	c-5.1,0-9.7-2.3-12.7-5.9V28c0-4.2,8.5-6.4,12.7-6.4s12.7,2.1,12.7,6.4V30.8z"/>
</svg>
