<?xml version="1.0" encoding="utf-8"?>
<!-- Generator: Adobe Illustrator 26.5.0, SVG Export Plug-In . SVG Version: 6.00 Build 0)  -->
<svg version="1.1" id="Layer_1" xmlns="http://www.w3.org/2000/svg" xmlns:xlink="http://www.w3.org/1999/xlink" x="0px" y="0px"
	 viewBox="0 0 128.4 28.7" style="enable-background:new 0 0 128.4 28.7;" xml:space="preserve">
<style type="text/css">
	.st0{fill:#FFFFFF;}
</style>
<g>
	<g>
		<path class="st0" d="M65.1,25.4v-4.1h-1v-0.6h1v-1.6h0.6v1.6h1.2v0.6h-1.2v4c0,0.5,0.2,0.8,0.6,0.8c0.3,0,0.5-0.1,0.6-0.3l0.2,0.5
			c-0.2,0.2-0.5,0.4-1,0.4C65.5,26.6,65.1,26.1,65.1,25.4z"/>
		<path class="st0" d="M72.2,22.5c0-1.1-0.6-1.4-1.4-1.4c-0.7,0-1.5,0.5-1.9,1v4.4h-0.6v-8h0.6v3.1c0.4-0.5,1.2-1,2.1-1
			c1.2,0,1.8,0.6,1.8,1.9v4.1h-0.6V22.5z"/>
		<path class="st0" d="M77.3,20.5c1.8,0,2.7,1.4,2.7,3.1v0.2h-4.8c0.1,1.3,0.9,2.3,2.3,2.3c0.7,0,1.4-0.3,1.9-0.8l0.3,0.4
			c-0.6,0.6-1.3,0.9-2.3,0.9c-1.7,0-2.9-1.3-2.9-3C74.5,21.9,75.6,20.5,77.3,20.5z M75.1,23.3h4.2c0-1-0.7-2.2-2.1-2.2
			C75.9,21.1,75.2,22.3,75.1,23.3z"/>
		<path class="st0" d="M84.7,28.7v-8h0.6v0.9c0.4-0.6,1.2-1.1,2-1.1c1.5,0,2.6,1.2,2.6,3c0,1.8-1,3-2.6,3c-0.8,0-1.5-0.4-2-1.1v3.1
			H84.7z M87.2,21.1c-0.8,0-1.6,0.5-1.9,1V25c0.3,0.6,1.1,1.1,1.9,1.1c1.3,0,2-1.1,2-2.5S88.5,21.1,87.2,21.1z"/>
		<path class="st0" d="M91.2,23.6c0-1.7,1.1-3,2.8-3c1.7,0,2.8,1.3,2.8,3s-1.1,3-2.8,3C92.3,26.6,91.2,25.3,91.2,23.6z M96.1,23.6
			c0-1.3-0.8-2.5-2.1-2.5c-1.3,0-2.1,1.2-2.1,2.5c0,1.3,0.8,2.5,2.1,2.5C95.4,26.1,96.1,24.9,96.1,23.6z"/>
		<path class="st0" d="M102.7,25.5c-0.4,0.6-1.2,1.1-2,1.1c-1.5,0-2.6-1.2-2.6-3c0-1.8,1.1-3,2.6-3c0.8,0,1.5,0.4,2,1.1v-3.1h0.6v8
			h-0.6V25.5z M102.7,22.2c-0.3-0.6-1.1-1.1-1.9-1.1c-1.3,0-2,1.1-2,2.5c0,1.4,0.7,2.5,2,2.5c0.8,0,1.6-0.5,1.9-1V22.2z"/>
		<path class="st0" d="M107.7,20.5c1,0,1.6,0.4,2.1,1l-0.4,0.4c-0.4-0.6-0.9-0.8-1.6-0.8c-1.4,0-2.2,1.1-2.2,2.5s0.8,2.5,2.2,2.5
			c0.6,0,1.2-0.2,1.6-0.8l0.4,0.4c-0.5,0.6-1.1,1-2.1,1c-1.7,0-2.8-1.4-2.8-3S106,20.5,107.7,20.5z"/>
		<path class="st0" d="M114.9,25.8c-0.5,0.6-1.2,0.8-2,0.8c-1,0-2-0.7-2-1.9c0-1.3,1-1.9,2-1.9c0.8,0,1.5,0.3,2,0.8v-1.2
			c0-0.9-0.7-1.3-1.6-1.3c-0.7,0-1.3,0.3-1.8,0.9l-0.3-0.4c0.6-0.7,1.3-1,2.2-1c1.2,0,2.1,0.6,2.1,1.9v4.1h-0.6V25.8z M114.9,24.1
			c-0.4-0.5-1.1-0.8-1.8-0.8c-1,0-1.6,0.6-1.6,1.4c0,0.8,0.6,1.4,1.6,1.4c0.7,0,1.3-0.3,1.8-0.8V24.1z"/>
		<path class="st0" d="M117.3,25.2c0.4,0.5,1,0.9,1.9,0.9c1,0,1.5-0.5,1.5-1.2c0-0.7-0.8-1-1.6-1.2c-1-0.2-2-0.5-2-1.6
			c0-0.9,0.7-1.6,2.1-1.6c1,0,1.7,0.4,2.1,0.9l-0.3,0.4c-0.3-0.5-1-0.8-1.7-0.8c-0.9,0-1.5,0.4-1.5,1c0,0.7,0.7,0.8,1.5,1
			c1,0.3,2.1,0.5,2.1,1.8c0,0.9-0.7,1.7-2.2,1.7c-0.9,0-1.7-0.3-2.2-0.9L117.3,25.2z"/>
		<path class="st0" d="M123.1,25.4v-4.1h-1v-0.6h1v-1.6h0.6v1.6h1.2v0.6h-1.2v4c0,0.5,0.2,0.8,0.6,0.8c0.3,0,0.5-0.1,0.6-0.3
			l0.2,0.5c-0.2,0.2-0.5,0.4-1,0.4C123.4,26.6,123.1,26.1,123.1,25.4z"/>
	</g>
	<g>
		<path class="st0" d="M33.9,6.3c1.2-0.3,2.2-1.4,2.2-3c0-1.7-1.3-3.3-3.7-3.3h-2.1l-0.9,2.4h2.4c0.9,0,1.5,0.6,1.5,1.4
			c0,0.8-0.6,1.4-1.5,1.4h-3.5l-2.8,7.4V13h7.1c2.5,0,3.8-1.6,3.8-3.5C36.4,7.9,35.3,6.5,33.9,6.3z M31.9,10.6h-3.6v-3h3.6
			c1.1,0,1.7,0.7,1.7,1.5C33.6,10,32.9,10.6,31.9,10.6z"/>
		<path class="st0" d="M38.5,7.8V0h2.8v7.7c0,1.8,1.1,3.1,3.1,3.1c2,0,3-1.2,3-3.1V0h2.8v7.8c0,3.2-1.9,5.4-5.9,5.4
			C40.4,13.3,38.5,11,38.5,7.8z"/>
		<path class="st0" d="M60.2,13l-2.6-4.6h-2V13h-2.8V0h6.1c2.7,0,4.4,1.8,4.4,4.2c0,2.3-1.5,3.5-2.9,3.9l2.9,5H60.2z M60.5,4.2
			c0-1.1-0.8-1.7-1.9-1.7h-2.9V6h2.9C59.6,6,60.5,5.3,60.5,4.2z"/>
		<path class="st0" d="M65.4,13V0h5.1c4.1,0,6.9,2.6,6.9,6.5c0,3.9-2.8,6.5-6.9,6.5H65.4z M74.6,6.5c0-2.3-1.4-4.1-4.1-4.1h-2.4v8.1
			h2.4C73.1,10.6,74.6,8.7,74.6,6.5z"/>
		<path class="st0" d="M79.4,13V0h9.2v2.4h-6.4v2.7h6.3v2.4h-6.3v3h6.4V13H79.4z"/>
		<path class="st0" d="M99.8,13l-6.2-8.5V13h-2.8V0h2.8l6,8.2V0h2.8v13H99.8z"/>
		<path class="st0" d="M105,13V0h9.2v2.4h-6.4v2.7h6.3v2.4h-6.3v3h6.4V13H105z"/>
		<path class="st0" d="M116.4,13V0h5.1c4.1,0,6.9,2.6,6.9,6.5c0,3.9-2.8,6.5-6.9,6.5H116.4z M125.6,6.5c0-2.3-1.4-4.1-4.1-4.1h-2.4
			v8.1h2.4C124.1,10.6,125.6,8.7,125.6,6.5z"/>
	</g>
	<g>
		<path class="st0" d="M0,0h1.1v8c0,2.6,1.4,4.2,3.9,4.2S9,10.6,9,8V0h1.1v8c0,3.2-1.7,5.2-5.1,5.2C1.7,13.3,0,11.2,0,8V0z"/>
		<path class="st0" d="M22.7,0v11.1L14.5,0h-1.1v13h1.1V1.8l7.7,10.6l1.6-4.2V0H22.7z"/>
	</g>
</g>
</svg>
