<?xml version="1.0" encoding="utf-8"?>
<!-- Generator: Adobe Illustrator 26.3.1, SVG Export Plug-In . SVG Version: 6.00 Build 0)  -->
<svg version="1.1" id="Layer_1" xmlns="http://www.w3.org/2000/svg" xmlns:xlink="http://www.w3.org/1999/xlink" x="0px" y="0px"
	 viewBox="0 0 512 512" style="enable-background:new 0 0 512 512;" xml:space="preserve">
<style type="text/css">
	.st0{fill:#FFFFFF;}
	.st1{fill:#A1C7E3;}
</style>
<g>
	<g>
		<path class="st0" d="M467.7,400c-3.1,4.6-9.3,5.7-13.9,2.6c-4.6-3.1-5.7-9.3-2.6-13.9C477.9,349.5,492,303.6,492,256
			c0-130.1-105.9-236-236-236S20,125.9,20,256s105.9,236,236,236c48.7,0,95.4-14.7,135.1-42.5c4.5-3.2,10.8-2.1,13.9,2.5
			s2.1,10.8-2.5,13.9C359.5,496.1,308.8,512,256,512c-68.4,0-132.7-26.6-181-75C26.6,388.7,0,324.4,0,256S26.6,123.3,75,75
			C123.3,26.6,187.6,0,256,0s132.7,26.6,181,75c48.4,48.4,75,112.6,75,181C512,307.7,496.7,357.4,467.7,400z"/>
	</g>
</g>
<g>
	<g>
		<path class="st1" d="M437.4,436.7L437,437c-3.9,3.9-10.2,3.9-14.1,0c-3.9-3.9-3.9-10.2,0-14.1l0.3-0.3c2-2,4.5-2.9,7.1-2.9
			s5.1,1,7.1,2.9C441.3,426.4,441.3,432.8,437.4,436.7z"/>
	</g>
</g>
<g>
	<g>
		<path class="st0" d="M200,255h-30.3c2.8,48.4,26.5,56.4,44.5,58.1c5.2,0.5,9.1,4.8,9.1,10v56c0,2.7-1.1,5.4-3.1,7.3
			c-2,1.9-4.7,2.9-7.4,2.7c-40.1-2.3-70.8-16.1-91.2-41.3c-20.1-24.7-30.2-60.6-30.2-106.6V157c0-18.8,15.3-34,34-34H200
			c18.8,0,34,15.3,34,34v63.9C234,239.7,218.7,255,200,255z M214,157c0-7.7-6.3-14-14-14h-74.7c-7.7,0-14,6.3-14,14v84.1
			c0,41.3,8.7,72.9,25.8,93.9c15.2,18.7,36.9,29.6,66.2,33v-36.5c-26.4-5.4-53.9-25.7-53.9-86.7c0-5.5,4.5-10,10-10H200
			c7.7,0,14-6.3,14-14V157z"/>
	</g>
</g>
<g>
	<g>
		<path class="st0" d="M386.7,255h-30.3c2.8,48.4,26.5,56.4,44.5,58.1c5.2,0.5,9.1,4.8,9.1,10v56c0,2.7-1.1,5.4-3.1,7.3
			c-2,1.9-4.7,2.9-7.4,2.7c-40.1-2.3-70.8-16.2-91.2-41.3C288.2,323,278,287.1,278,241.1v-3.5c0-5.5,4.5-10,10-10s10,4.5,10,10v3.5
			c0,41.3,8.7,72.9,25.8,93.9c15.2,18.7,36.9,29.6,66.2,33v-36.5c-26.4-5.4-53.9-25.7-53.9-86.7c0-5.5,4.5-10,10-10h40.6
			c7.7,0,14-6.3,14-14V157c0-7.7-6.3-14-14-14H312c-7.7,0-14,6.3-14,14v5.5c0,5.5-4.5,10-10,10s-10-4.5-10-10V157
			c0-18.8,15.3-34,34-34h74.7c18.8,0,34,15.3,34,34v63.9C420.8,239.7,405.5,255,386.7,255z"/>
	</g>
</g>
<g>
	<g>
		<path class="st1" d="M288,212.4c-5.5,0-10-4.5-10-10V202c0-5.5,4.5-10,10-10s10,4.5,10,10v0.4C298,207.9,293.5,212.4,288,212.4z"
			/>
	</g>
</g>
</svg>
