<?xml version="1.0" encoding="utf-8"?>
<!-- Generator: Adobe Illustrator 27.5.0, SVG Export Plug-In . SVG Version: 6.00 Build 0)  -->
<svg version="1.1" id="Layer_1" xmlns="http://www.w3.org/2000/svg" xmlns:xlink="http://www.w3.org/1999/xlink" x="0px" y="0px"
	 viewBox="0 0 309.2 182.3" style="enable-background:new 0 0 309.2 182.3;" xml:space="preserve">
<style type="text/css">
	.st0{fill:#404D59;}
</style>
<g>
	<g>
		<g>
			<path class="st0" d="M12.1,37.8V10H2.5V0h30v10h-9.6v27.8H12.1z"/>
			<path class="st0" d="M53.8,37.8V22.6c0-2.8-1.5-3.8-3.8-3.8c-2.2,0-3.3,1.2-4.1,2.2v16.9h-9.7V0h9.7v13.5
				c1.5-1.8,4.4-3.8,8.9-3.8c6,0,8.6,3.7,8.6,8.5v19.6H53.8z"/>
			<path class="st0" d="M81.2,9.8c7.6,0,13.5,5.8,13.5,15.4v2.1H77.1c0.5,1.8,2.4,3.5,5.7,3.5c2.2,0,4.6-0.9,5.9-1.9l4,6.3
				c-2.6,2.3-7.2,3.4-11.1,3.4c-8.1,0-14.4-5.4-14.4-14.4C67.1,16.2,72.8,9.8,81.2,9.8z M77,20.8h8.5c-0.3-1.2-1.2-3.3-4.3-3.3
				C78.2,17.5,77.3,19.6,77,20.8z"/>
		</g>
		<path class="st0" d="M12.8,96.8H2.5V56.3h10.3v3.1c2.2-2.8,4.9-3.8,7.8-3.8c6.9,0,12.2,5.3,12.2,15.4c0,10.1-5.3,15.4-12.2,15.4
			c-2.9,0-5.5-1-7.8-3.8V96.8z M17.1,65.3c-1.3,0-3.3,0.7-4.3,2v7.5c0.9,1.2,2.9,2,4.3,2c2.8,0,5.2-2.1,5.2-5.8
			C22.3,67.3,19.8,65.3,17.1,65.3z"/>
		<path class="st0" d="M36.7,85.6V56.3H47v3.3c1.7-2.1,5.3-4.1,8.5-4.1V66c-0.5-0.2-1.4-0.3-2.4-0.3c-2.2,0-5,0.6-6.2,2.1v17.8H36.7
			z"/>
		<path class="st0" d="M75.2,85.6v-2.8c-1.6,2.1-4.9,3.5-8.4,3.5c-4.1,0-9.5-3-9.5-9.6c0-7.3,5.4-9,9.5-9c3.6,0,6.9,1.2,8.4,3.2
			v-3.3c0-2.1-1.8-3.6-5.2-3.6c-2.6,0-5.5,1.1-7.7,2.9L58.8,60c3.7-3.2,8.9-4.4,13.1-4.4c6.9,0,13.6,2.5,13.6,12.3v17.7H75.2z
			 M75.2,76.1c-0.7-1-2.5-1.6-4.1-1.6c-1.7,0-3.6,0.6-3.6,2.4c0,1.8,1.9,2.4,3.6,2.4c1.6,0,3.4-0.5,4.1-1.6V76.1z"/>
		<path class="st0" d="M105,55.6c6.3,0,10.2,3,11.8,5.5l-6.7,6.6c-0.9-1.4-2.5-2.5-4.7-2.5c-2.9,0-5.5,1.9-5.5,5.7
			c0,3.8,2.5,5.8,5.5,5.8c2.2,0,3.8-1.2,4.7-2.5l6.7,6.7c-1.6,2.4-5.5,5.5-11.8,5.5c-8.8,0-15.6-6.1-15.6-15.4
			C89.4,61.7,96.2,55.6,105,55.6z"/>
		<path class="st0" d="M122.3,77.1V65.8h-4.6v-9.5h4.6v-8h10.3v8h5.6v9.5h-5.6V74c0,1.5,0.9,2.7,2.3,2.7c0.9,0,1.8-0.3,2.1-0.5
			l1.8,8.3c-1.1,1-3.5,1.9-7,1.9C125.7,86.4,122.3,83.3,122.3,77.1z"/>
		<path class="st0" d="M141.5,47.2c0-3.4,2.6-6.1,5.8-6.1c3.2,0,5.8,2.7,5.8,6.1c0,3.4-2.6,6.1-5.8,6.1
			C144.1,53.3,141.5,50.6,141.5,47.2z M142.2,85.6V56.3h10.3v29.3H142.2z"/>
		<path class="st0" d="M172,55.6c6.3,0,10.2,3,11.8,5.5l-6.7,6.6c-0.9-1.4-2.5-2.5-4.7-2.5c-2.9,0-5.5,1.9-5.5,5.7
			c0,3.8,2.5,5.8,5.5,5.8c2.2,0,3.8-1.2,4.7-2.5l6.7,6.7c-1.6,2.4-5.5,5.5-11.8,5.5c-8.8,0-15.6-6.1-15.6-15.4
			C156.4,61.7,163.2,55.6,172,55.6z"/>
		<path class="st0" d="M200.4,55.6c8.2,0,14.4,6.2,14.4,16.5v2.2h-18.9c0.6,1.9,2.6,3.7,6.1,3.7c2.4,0,4.9-0.9,6.3-2.1l4.3,6.7
			c-2.8,2.5-7.7,3.6-11.8,3.6c-8.7,0-15.5-5.8-15.5-15.4C185.3,62.5,191.4,55.6,200.4,55.6z M195.8,67.4h9.1
			c-0.3-1.3-1.3-3.5-4.6-3.5C197.2,63.9,196.2,66.1,195.8,67.4z"/>
		<path class="st0" d="M227,73.7c0-6.7,4.7-12.6,12.8-12.6c8.1,0,12.8,5.9,12.8,12.6c0,6.7-4.7,12.6-12.8,12.6
			C231.7,86.4,227,80.5,227,73.7z M243.9,73.7c0-2.6-1.5-4.7-4.1-4.7c-2.6,0-4.1,2-4.1,4.7c0,2.7,1.5,4.7,4.1,4.7
			C242.4,78.5,243.9,76.4,243.9,73.7z"/>
		<path class="st0" d="M266,69.5v16.3h-8.5V69.5h-3.8v-7.8h3.8v-1.1c0-5,3.6-8.6,8.7-8.6c2.2,0,4.1,0.5,5.3,1.2l-1.5,6
			c-0.5-0.3-1.2-0.5-1.8-0.5c-1.3,0-2.2,0.8-2.2,2.2v0.8h4.6v7.8H266z"/>
		<g>
			<path class="st0" d="M12.8,148.1H2.5v-40.5h10.3v3.1c2.2-2.8,4.9-3.8,7.8-3.8c6.9,0,12.2,5.3,12.2,15.4
				c0,10.1-5.3,15.4-12.2,15.4c-2.9,0-5.5-1-7.8-3.8V148.1z M17.1,116.6c-1.3,0-3.3,0.7-4.3,2v7.5c0.9,1.2,2.9,2,4.3,2
				c2.8,0,5.2-2.1,5.2-5.8C22.3,118.6,19.8,116.6,17.1,116.6z"/>
			<path class="st0" d="M52.7,136.9v-2.8c-1.6,2.1-4.9,3.5-8.4,3.5c-4.1,0-9.5-3-9.5-9.6c0-7.3,5.4-9,9.5-9c3.6,0,6.9,1.2,8.4,3.2
				v-3.3c0-2.1-1.8-3.6-5.2-3.6c-2.6,0-5.5,1.1-7.7,2.9l-3.5-6.7c3.7-3.2,8.9-4.4,13.1-4.4c6.9,0,13.6,2.5,13.6,12.3v17.7H52.7z
				 M52.7,127.4c-0.7-1-2.5-1.6-4.1-1.6c-1.7,0-3.6,0.6-3.6,2.4c0,1.8,1.9,2.4,3.6,2.4c1.6,0,3.4-0.5,4.1-1.6V127.4z"/>
			<path class="st0" d="M67.6,136.9v-29.3H78v3.3c1.7-2.1,5.3-4.1,8.5-4.1v10.4c-0.5-0.2-1.4-0.3-2.4-0.3c-2.2,0-5,0.6-6.2,2.1v17.8
				H67.6z"/>
			<path class="st0" d="M93.3,128.5v-11.3h-4.6v-9.5h4.6v-8h10.3v8h5.6v9.5h-5.6v8.2c0,1.5,0.9,2.7,2.3,2.7c0.9,0,1.8-0.3,2.1-0.5
				l1.8,8.3c-1.1,1-3.5,1.9-7,1.9C96.7,137.7,93.3,134.6,93.3,128.5z"/>
			<path class="st0" d="M132,136.9v-16.2c0-3-1.6-4.2-4-4.2c-2.4,0-3.6,1.3-4.4,2.3v18.1h-10.3v-29.3h10.3v3.3
				c1.6-1.9,4.7-4.1,9.5-4.1c6.4,0,9.3,4.1,9.3,9.2v20.8H132z"/>
			<path class="st0" d="M161.3,106.9c8.2,0,14.4,6.2,14.4,16.5v2.2h-18.9c0.6,1.9,2.6,3.7,6.1,3.7c2.4,0,4.9-0.9,6.3-2.1l4.3,6.7
				c-2.8,2.5-7.7,3.6-11.8,3.6c-8.7,0-15.5-5.8-15.5-15.4C146.2,113.8,152.3,106.9,161.3,106.9z M156.8,118.7h9.1
				c-0.3-1.3-1.3-3.5-4.6-3.5C158.1,115.2,157.1,117.4,156.8,118.7z"/>
			<path class="st0" d="M179.3,136.9v-29.3h10.3v3.3c1.7-2.1,5.3-4.1,8.5-4.1v10.4c-0.5-0.2-1.4-0.3-2.4-0.3c-2.2,0-5,0.6-6.2,2.1
				v17.8H179.3z"/>
			<path class="st0" d="M203.5,125.8c2.2,1.8,6.9,3.7,10,3.7c2.1,0,2.8-0.6,2.8-1.4c0-1-1.3-1.3-3.9-1.7c-4.7-0.7-11.8-1.6-11.8-9.5
				c0-5.3,4.4-10,12.4-10c4.7,0,8.8,1.5,12,3.8l-3.8,7.1c-1.7-1.5-4.9-3-8.2-3c-1.5,0-2.6,0.4-2.6,1.3c0,0.8,0.8,1.2,3.6,1.6
				c4.7,0.7,12.2,1.8,12.2,10c0,5.8-4.9,10.1-13.2,10.1c-5.1,0-10.6-1.9-13.6-4.5L203.5,125.8z"/>
			<path class="st0" d="M248.8,136.9v-16.3c0-3-1.6-4.1-4-4.1c-2.4,0-3.6,1.3-4.4,2.3v18.1H230V96.5h10.3V111
				c1.6-1.9,4.7-4.1,9.5-4.1c6.4,0,9.3,4,9.3,9.1v20.9H248.8z"/>
			<path class="st0" d="M263.1,98.5c0-3.4,2.6-6.1,5.8-6.1c3.2,0,5.8,2.7,5.8,6.1c0,3.4-2.6,6.1-5.8,6.1
				C265.7,104.6,263.1,101.9,263.1,98.5z M263.7,136.9v-29.3h10.3v29.3H263.7z"/>
			<path class="st0" d="M289.1,148.1h-10.3v-40.5h10.3v3.1c2.2-2.8,4.9-3.8,7.8-3.8c6.9,0,12.2,5.3,12.2,15.4
				c0,10.1-5.3,15.4-12.2,15.4c-2.9,0-5.5-1-7.8-3.8V148.1z M293.4,116.6c-1.3,0-3.3,0.7-4.3,2v7.5c0.9,1.2,2.9,2,4.3,2
				c2.8,0,5.2-2.1,5.2-5.8C298.6,118.6,296.2,116.6,293.4,116.6z"/>
		</g>
	</g>
	<rect y="167.7" class="st0" width="73" height="14.6"/>
</g>
</svg>
